<?xml version="1.0" standalone="no"?>
<!DOCTYPE svg PUBLIC "-//W3C//DTD SVG 20010904//EN"
 "http://www.w3.org/TR/2001/REC-SVG-20010904/DTD/svg10.dtd">
<svg version="1.0" xmlns="http://www.w3.org/2000/svg"
 width="578.000000pt" height="612.000000pt" viewBox="0 0 578.000000 612.000000"
 preserveAspectRatio="xMidYMid meet">

<g transform="translate(0.000000,612.000000) scale(0.100000,-0.100000)"
fill="#000000" stroke="none">
<path d="M644 5936 c-71 -9 -100 -17 -131 -39 -21 -15 -46 -27 -54 -28 -20 0
-57 -50 -74 -100 -9 -24 -23 -51 -32 -61 -13 -15 -14 -22 -3 -47 9 -23 9 -37
-1 -65 -10 -27 -10 -41 -1 -58 11 -22 18 -76 27 -200 2 -31 11 -67 19 -80 9
-14 19 -52 22 -87 4 -34 11 -64 15 -67 5 -3 9 -13 9 -23 0 -9 12 -33 26 -52
14 -19 31 -48 38 -64 7 -17 29 -48 49 -69 20 -21 35 -43 34 -49 -1 -6 8 -13
21 -15 17 -3 22 -10 22 -32 0 -16 7 -35 15 -43 7 -8 17 -26 21 -41 3 -14 10
-26 16 -26 5 0 31 -22 58 -48 27 -26 60 -54 75 -62 24 -13 31 -12 71 9 27 15
55 41 73 70 17 25 48 64 70 86 34 32 41 46 41 78 0 45 24 72 112 125 30 19 80
58 111 88 31 30 60 54 66 54 5 0 37 23 71 51 52 44 67 52 103 52 23 -1 47 3
52 7 6 4 24 10 40 13 17 4 45 9 62 13 20 4 47 22 68 45 19 22 39 39 45 39 5 0
17 12 27 28 10 15 24 32 32 38 21 16 10 105 -17 139 -12 15 -22 37 -22 48 0
11 -11 29 -23 41 -51 46 -107 86 -119 86 -8 0 -18 4 -23 9 -6 4 -38 18 -73 29
-34 11 -74 30 -89 41 -14 12 -34 21 -44 21 -10 0 -20 4 -23 9 -3 5 -16 11 -28
14 -105 25 -154 39 -177 52 -34 18 -300 66 -436 79 -27 2 -91 -1 -141 -8z
m586 -586 c0 -13 -11 -13 -30 0 -12 8 -11 10 8 10 12 0 22 -4 22 -10z"/>
<path d="M5050 5918 c-14 -5 -56 -10 -94 -9 -44 0 -76 -5 -89 -14 -12 -8 -31
-12 -43 -9 -15 4 -34 -2 -53 -15 -16 -12 -50 -23 -74 -25 -24 -2 -54 -9 -67
-16 -14 -7 -38 -14 -55 -15 -16 -2 -70 -17 -120 -34 -49 -17 -95 -31 -101 -31
-6 0 -17 -7 -24 -15 -7 -9 -29 -23 -49 -32 -20 -9 -56 -33 -81 -53 -55 -44
-138 -100 -149 -100 -5 0 -14 -7 -21 -15 -7 -9 -33 -25 -56 -35 -24 -11 -45
-24 -48 -28 -3 -5 8 -35 25 -68 20 -37 29 -67 26 -83 -3 -16 2 -33 13 -46 11
-11 37 -39 58 -62 24 -26 49 -43 62 -43 27 0 96 -18 128 -33 14 -7 35 -7 59
-1 34 8 37 13 49 62 13 63 39 101 80 122 16 8 56 29 88 48 33 18 81 37 108 42
34 7 69 24 111 56 82 63 159 97 215 96 55 0 63 -8 65 -63 2 -37 5 -44 22 -44
11 0 20 -6 19 -13 -1 -6 -2 -20 -3 -29 0 -10 -14 -34 -31 -53 -19 -22 -26 -38
-20 -44 6 -6 10 -16 10 -23 0 -22 -94 -154 -145 -203 -25 -25 -60 -66 -77 -92
-29 -47 -32 -48 -79 -48 -46 0 -62 -11 -39 -25 6 -3 10 -22 10 -42 0 -28 10
-48 48 -91 26 -31 48 -60 48 -64 1 -4 2 -14 3 -20 1 -7 26 -24 56 -36 47 -21
54 -28 57 -55 4 -44 41 -61 100 -47 24 6 54 14 68 17 27 6 80 50 80 67 1 15
75 96 89 96 6 0 13 11 17 25 3 14 17 34 31 44 13 11 35 48 49 83 14 35 31 70
38 78 7 8 19 31 26 50 7 19 20 43 29 53 9 11 16 24 16 30 1 7 4 19 7 27 25 64
37 124 28 140 -7 13 -4 22 11 36 20 18 21 26 16 184 -5 179 -15 227 -59 278
-15 18 -28 37 -28 42 0 14 -75 50 -102 50 -13 0 -37 8 -53 18 -17 11 -57 21
-90 24 -33 4 -67 9 -75 11 -8 3 -26 1 -40 -5z"/>
<path d="M4960 5514 c0 -7 27 -34 34 -34 4 0 1 9 -6 20 -12 19 -28 27 -28 14z"/>
<path d="M4972 5398 c6 -18 28 -21 28 -4 0 9 -7 16 -16 16 -9 0 -14 -5 -12
-12z"/>
<path d="M4779 5369 c-16 -17 -32 -43 -36 -58 -3 -14 -15 -37 -25 -50 -13 -17
-17 -33 -13 -52 7 -29 0 -40 -67 -112 -36 -39 -36 -40 -20 -62 9 -13 34 -28
54 -34 20 -7 40 -16 44 -22 3 -6 28 12 55 41 46 48 54 70 26 70 -7 0 -20 12
-30 25 -17 24 -17 25 20 66 21 23 54 76 74 118 39 82 40 79 -24 95 -24 6 -33
1 -58 -25z m-37 -321 c-7 -7 -12 -8 -12 -2 0 6 3 14 7 17 3 4 9 5 12 2 2 -3
-1 -11 -7 -17z"/>
<path d="M4593 4978 c2 -7 10 -13 17 -13 7 0 15 6 18 13 2 7 -5 12 -18 12 -13
0 -20 -5 -17 -12z"/>
<path d="M1953 3709 c-57 -17 -113 -103 -113 -176 0 -50 41 -107 91 -127 49
-20 67 -20 110 -2 64 27 99 84 99 162 0 67 -27 111 -83 138 -39 18 -57 19
-104 5z m149 -94 c19 -41 -28 -75 -60 -43 -16 16 -15 33 4 52 22 23 43 20 56
-9z"/>
<path d="M3539 3705 c-79 -34 -104 -150 -50 -228 38 -56 71 -72 146 -72 47 0
68 5 83 18 27 25 62 100 62 134 0 35 -43 106 -80 133 -39 28 -115 35 -161 15z
m191 -109 c20 -26 8 -61 -22 -64 -35 -4 -60 37 -38 63 16 19 44 19 60 1z"/>
<path d="M2720 3571 c-8 -5 -18 -7 -23 -4 -20 12 -257 -51 -332 -89 -154 -77
-230 -166 -223 -260 1 -23 -3 -42 -10 -47 -6 -4 -16 -29 -21 -57 -8 -42 -6
-61 16 -131 14 -46 28 -83 32 -83 4 0 36 -28 71 -61 65 -62 130 -109 150 -109
6 0 23 -9 39 -20 15 -12 38 -22 52 -22 13 -1 33 -10 44 -19 14 -12 36 -18 65
-18 25 1 92 -4 150 -9 118 -11 200 -9 310 8 41 7 101 15 132 19 35 4 63 13 70
23 14 18 119 98 128 98 12 0 102 134 115 171 11 29 11 46 3 69 -6 17 -8 44 -4
61 3 16 -1 49 -9 72 -8 23 -15 52 -15 65 0 25 -34 82 -77 128 -36 38 -144 112
-186 126 -18 6 -43 20 -57 30 -14 11 -33 17 -45 14 -12 -3 -54 6 -94 19 -52
18 -78 22 -90 15 -10 -5 -21 -6 -25 -3 -4 4 -30 8 -59 9 -29 1 -61 5 -72 8
-11 3 -27 2 -35 -3z m170 -236 c7 -8 21 -15 31 -15 25 0 33 -18 17 -37 -16
-20 -106 -63 -133 -63 -11 0 -53 16 -92 35 -40 19 -77 35 -83 35 -21 0 -9 30
18 44 39 22 224 22 242 1z m-737 -240 c4 -8 2 -17 -3 -20 -6 -4 -10 3 -10 14
0 25 6 27 13 6z"/>
<path d="M2830 3265 c-14 -7 -34 -17 -45 -21 -19 -7 -19 -8 2 -11 14 -3 33 5
50 21 31 29 29 32 -7 11z"/>
<path d="M1387 3299 c11 -11 40 -20 168 -54 33 -8 68 -20 77 -25 25 -14 50
-12 46 3 -3 6 -27 18 -54 25 -27 8 -62 17 -79 22 -160 45 -177 48 -158 29z"/>
<path d="M4130 3275 c-30 -7 -55 -14 -55 -15 0 -1 -20 -7 -44 -13 -55 -15 -72
-44 -20 -33 52 11 130 26 174 32 41 7 65 20 65 35 0 12 -53 9 -120 -6z"/>
<path d="M1630 3113 c-8 -2 -26 -9 -40 -15 -33 -14 -58 -24 -100 -38 -19 -7
-44 -16 -55 -20 -11 -5 -28 -11 -37 -14 -10 -3 -18 -12 -18 -20 0 -16 10 -13
105 29 17 7 59 24 95 36 65 22 111 50 80 48 -8 0 -22 -3 -30 -6z"/>
<path d="M3980 3066 c0 -9 6 -16 13 -16 7 0 63 -20 125 -45 61 -25 114 -45
117 -45 3 0 5 6 5 14 0 8 -19 21 -42 31 -57 22 -109 45 -129 55 -9 5 -33 12
-53 15 -29 6 -36 4 -36 -9z"/>
<path d="M875 2873 c-114 -10 -183 -42 -268 -127 -60 -60 -66 -71 -97 -165
-34 -108 -35 -134 -3 -236 16 -54 53 -124 78 -149 9 -8 26 -43 39 -78 13 -35
40 -94 60 -133 20 -38 36 -75 36 -81 0 -5 24 -40 54 -76 55 -66 62 -70 178
-107 54 -17 167 -18 208 -1 48 19 143 93 165 127 10 15 28 39 41 53 69 75 75
247 12 358 -51 92 -142 208 -179 231 -14 9 -39 31 -54 49 -22 26 -26 39 -21
64 3 17 1 49 -5 72 -13 48 -74 145 -97 154 -10 3 -32 16 -51 29 -19 13 -39 22
-45 21 -6 -1 -29 -3 -51 -5z m-309 -587 c15 -16 19 -36 7 -36 -5 0 -13 11 -20
25 -13 28 -8 32 13 11z m136 -131 c8 -14 2 -12 -21 9 -17 17 -31 34 -31 39 0
14 39 -23 52 -48z"/>
<path d="M4632 2763 c-25 -3 -45 -10 -49 -19 -3 -8 -13 -14 -22 -14 -9 0 -32
-13 -51 -30 -19 -16 -45 -29 -56 -30 -18 0 -22 -8 -27 -45 -2 -25 -12 -54 -22
-65 -11 -12 -15 -28 -12 -41 3 -11 -3 -41 -14 -66 -10 -25 -17 -48 -14 -53 10
-16 -36 -97 -95 -168 -34 -39 -59 -76 -56 -81 6 -9 -56 -134 -79 -161 -9 -11
-11 -31 -7 -70 6 -44 18 -72 64 -140 73 -109 131 -165 181 -174 21 -4 57 -17
80 -29 59 -31 207 -29 269 3 54 27 110 81 153 145 36 53 85 152 85 172 0 6 11
24 23 40 44 52 100 137 118 177 22 51 51 253 42 298 -12 64 -70 162 -133 225
-69 70 -125 103 -173 103 -18 0 -50 7 -72 15 -40 14 -52 15 -133 8z"/>
<path d="M4755 1264 c-8 -12 -27 -25 -42 -28 -16 -4 -49 -20 -73 -36 -25 -17
-53 -30 -62 -30 -10 0 -18 -4 -18 -9 0 -18 -87 -98 -113 -105 -15 -3 -27 -10
-27 -15 0 -11 -214 -231 -224 -231 -12 0 -35 -32 -36 -49 0 -17 -71 -84 -125
-119 -35 -22 -38 -26 -20 -33 11 -4 39 -8 61 -8 l42 -1 7 -83 c12 -140 73
-225 207 -290 109 -52 132 -57 247 -57 171 1 283 37 391 125 163 133 270 321
270 470 0 73 -24 161 -66 249 -29 60 -53 92 -107 142 -125 115 -273 167 -312
108z m151 -376 c10 -17 16 -57 15 -113 0 -45 -4 -53 -38 -83 -46 -40 -77 -40
-81 2 -7 57 9 116 39 150 16 19 29 39 29 45 0 15 27 14 36 -1z m-276 -139 c73
-77 6 -215 -81 -168 -18 9 -79 68 -79 75 0 2 9 28 20 58 21 56 25 59 92 65 10
0 31 -13 48 -30z m504 23 c9 -14 -19 -108 -40 -135 -24 -30 -65 -49 -82 -38
-16 10 30 104 71 149 32 33 42 38 51 24z m-234 -207 l39 -25 -6 -72 c-7 -84
-18 -111 -65 -154 -50 -48 -85 -62 -176 -72 -92 -11 -157 1 -174 32 -17 31 49
156 112 213 40 36 121 73 161 73 24 0 39 5 43 15 8 21 20 19 66 -10z"/>
<path d="M704 1173 c-154 -150 -194 -225 -214 -402 -12 -96 -11 -105 10 -159
12 -31 26 -65 31 -74 5 -10 9 -22 9 -28 0 -16 69 -109 103 -140 18 -15 50 -44
72 -65 96 -89 232 -175 275 -175 9 0 21 -5 27 -11 22 -22 143 -18 241 7 100
26 116 33 177 79 56 42 70 60 110 140 50 102 61 161 45 228 -8 37 -9 60 -3 72
15 26 4 54 -27 70 -16 8 -35 28 -43 45 -23 46 -90 119 -109 120 -10 0 -25 11
-34 25 -9 14 -21 25 -28 25 -6 0 -38 25 -71 55 -32 30 -63 55 -67 55 -4 0 -8
7 -8 15 0 8 -4 15 -9 15 -6 0 -23 13 -38 29 -15 15 -48 36 -71 45 -24 9 -60
32 -80 52 -21 19 -47 44 -59 55 -13 13 -41 22 -75 25 l-53 6 -111 -109z m140
-395 c31 -68 40 -127 21 -134 -20 -8 -69 24 -89 56 -16 28 -21 85 -10 114 3 9
17 16 30 16 19 0 28 -11 48 -52z m50 16 c3 -8 2 -12 -4 -9 -6 3 -10 10 -10 16
0 14 7 11 14 -7z m13 -46 c-3 -8 -6 -5 -6 6 -1 11 2 17 5 13 3 -3 4 -12 1 -19z
m269 -39 c2 -53 -26 -123 -54 -138 -32 -17 -70 -13 -82 8 -32 60 21 155 95
174 34 8 40 2 41 -44z m-543 -28 c59 -65 88 -141 54 -141 -33 0 -127 126 -127
170 0 23 40 7 73 -29z m366 -194 c86 -57 181 -173 181 -220 0 -19 -52 -29
-112 -21 -31 4 -48 3 -48 -4 0 -6 8 -13 18 -15 9 -3 0 -5 -22 -6 -51 -1 -156
49 -188 91 -40 52 -60 97 -53 119 4 11 23 36 42 56 35 34 38 35 91 30 33 -4
68 -15 91 -30z"/>
</g>
</svg>
